<svg width="14" height="12" viewBox="0 0 14 12" fill="none" xmlns="http://www.w3.org/2000/svg">
<path fill-rule="evenodd" clip-rule="evenodd" d="M0 11.3333C0 11.1565 0.0670454 10.987 0.186387 10.8619C0.305728 10.7369 0.467589 10.6667 0.636364 10.6667H13.3636C13.5324 10.6667 13.6943 10.7369 13.8136 10.8619C13.933 10.987 14 11.1565 14 11.3333C14 11.5101 13.933 11.6797 13.8136 11.8047C13.6943 11.9298 13.5324 12 13.3636 12H0.636364C0.467589 12 0.305728 11.9298 0.186387 11.8047C0.0670454 11.6797 0 11.5101 0 11.3333ZM0 6C0 5.82319 0.0670454 5.65362 0.186387 5.5286C0.305728 5.40357 0.467589 5.33333 0.636364 5.33333H13.3636C13.5324 5.33333 13.6943 5.40357 13.8136 5.5286C13.933 5.65362 14 5.82319 14 6C14 6.17681 13.933 6.34638 13.8136 6.47141C13.6943 6.59643 13.5324 6.66667 13.3636 6.66667H0.636364C0.467589 6.66667 0.305728 6.59643 0.186387 6.47141C0.0670454 6.34638 0 6.17681 0 6ZM0 0.666667C0 0.489856 0.0670454 0.320287 0.186387 0.195262C0.305728 0.070238 0.467589 0 0.636364 0H13.3636C13.5324 0 13.6943 0.070238 13.8136 0.195262C13.933 0.320287 14 0.489856 14 0.666667C14 0.843478 13.933 1.01305 13.8136 1.13807C13.6943 1.2631 13.5324 1.33333 13.3636 1.33333H0.636364C0.467589 1.33333 0.305728 1.2631 0.186387 1.13807C0.0670454 1.01305 0 0.843478 0 0.666667Z" fill="#241C1C"/>
</svg>
